<svg width="920" height="920" viewBox="0 0 243.41666 243.41667" xmlns="http://www.w3.org/2000/svg"><ellipse ry="111.12499" rx="121.33035" cy="119.13801" cx="121.70833" style="fill:#9fc;fill-opacity:1;stroke:none;stroke-width:.25801468;stroke-linecap:butt;stroke-linejoin:miter;stroke-miterlimit:4;stroke-dasharray:none;stroke-opacity:1;paint-order:markers stroke fill"/><path d="m18.898809 237.06655 3.85585-82.35713 69.395439 44.51783z" style="fill:#9fc;fill-opacity:1;stroke:none;stroke-width:.23997708;stroke-linecap:butt;stroke-linejoin:miter;stroke-miterlimit:4;stroke-dasharray:none;stroke-opacity:1;paint-order:markers stroke fill"/><text y="192.08757" x="22.330833" style="font-style:normal;font-weight:400;font-size:176.3888855px;line-height:1.25;font-family:sans-serif;letter-spacing:0;word-spacing:0;fill:#000;fill-opacity:1;stroke:none;stroke-width:.26458332"><tspan style="font-style:normal;font-variant:normal;font-weight:400;font-stretch:normal;font-size:160px;font-family:sans-serif;-inkscape-font-specification:'sans-serif Bold';stroke-width:.26458332" y="170" x="40">шкн</tspan></text><path d="m226.23011 158.99549a2.6458332 2.6458332.0 00-3.7412.0l-8.7154 8.7154 19.6164 19.6162 8.7152-8.7102a2.6458332 2.6458332.0 000-3.7464zm3.4184 32.0728-19.6162-19.6162-34.3958 34.3958h1.096a2.6458332 2.6458332.0 012.6458 2.6458v2.6458h2.6458a2.6458332 2.6458332.0 012.646 2.6458v2.646h2.6458a2.6458332 2.6458332.0 012.6458 2.6458v2.6458h2.6458a2.6458332 2.6458332.0 012.6458 2.6458v1.096zm-39.518 39.5182a2.6458332 2.6458332.0 01-.16-.926v-2.6458h-2.6458a2.6458332 2.6458332.0 01-2.6458-2.6458v-2.6458h-2.646a2.6458332 2.6458332.0 01-2.6458-2.6458v-2.6458h-2.6458a2.6458332 2.6458332.0 01-2.6458-2.646v-2.6458h-2.6458a2.6405416 2.6405416.0 01-.926-.16l-.948.942a2.6458332 2.6458332.0 00-.582.89l-10.5834 26.4584a2.6458332 2.6458332.0 003.4396 3.4396l26.4584-10.5834a2.6458332 2.6458332.0 00.888-.582l.942-.942z" style="stroke-width:5.29166"/></svg>